<svg width="12" height="12" viewBox="0 0 12 12" fill="none" xmlns="http://www.w3.org/2000/svg">
    <path d="M8.14883 7.63617L8.16856 7.62531L8.18402 7.61734L9.53575 8.78152C9.38859 8.96221 9.2077 9.16592 8.98784 9.38577L8.81947 9.55415C8.50878 9.86484 8.23285 9.85183 8.09941 9.78895C7.29391 9.40937 6.06773 8.67546 4.69585 7.30359C3.32398 5.93171 2.59007 4.70553 2.2105 3.90003C2.14761 3.76659 2.13461 3.49066 2.44529 3.17997L2.61367 3.0116C2.83352 2.79174 3.03723 2.61085 3.21792 2.46369L4.3821 3.81542L4.37395 3.83124L4.36327 3.85061C4.35222 3.87071 4.32457 3.92103 4.29602 3.98249C4.24027 4.10251 4.1372 4.35431 4.1396 4.68546C4.14257 5.09581 4.29293 5.45671 4.47009 5.75134C4.65177 6.05347 4.91489 6.37431 5.27001 6.72943C5.62513 7.08455 5.94597 7.34767 6.2481 7.52935C6.54273 7.70652 6.90363 7.85687 7.31398 7.85985C7.64513 7.86225 7.89693 7.75917 8.01695 7.70342C8.0784 7.67487 8.12873 7.64722 8.14883 7.63617ZM0.855676 4.54435C1.30373 5.49517 2.13409 6.8648 3.63436 8.36508C5.13464 9.86535 6.50427 10.6957 7.45509 11.1438C8.29271 11.5385 9.23041 11.2543 9.87502 10.6097L10.0434 10.4413C10.6461 9.83866 11.0186 9.31934 11.2305 8.97723C11.4073 8.69192 11.3253 8.34165 11.0812 8.13142L8.78342 6.15245C8.55282 5.95385 8.22429 5.91599 7.95295 6.05596L7.48137 6.29923C7.46833 6.30596 7.45508 6.31328 7.44351 6.31968C7.38962 6.34945 7.36067 6.3631 7.33322 6.3629C7.28523 6.36255 7.18873 6.34386 7.02481 6.24529C6.86134 6.147 6.63584 5.97228 6.3315 5.66794C6.02716 5.3636 5.85244 5.1381 5.75415 4.97463C5.65558 4.81071 5.63689 4.71421 5.63654 4.66622C5.63634 4.63878 5.65023 4.60939 5.68002 4.55548C5.68641 4.54391 5.69349 4.5311 5.70021 4.51807L5.94348 4.04649C6.08345 3.77515 6.04559 3.44662 5.84699 3.21602L3.86802 0.918224C3.65779 0.674129 3.30752 0.592164 3.02221 0.768898C2.6801 0.980817 2.16078 1.35338 1.55812 1.95605L1.38974 2.12442C0.745131 2.76903 0.460968 3.70673 0.855676 4.54435Z" fill="white"/>
    <path d="M9.07532 4.04907C9.07532 4.67039 8.57164 5.17407 7.95032 5.17407C7.329 5.17407 6.82532 4.67039 6.82532 4.04907C6.82532 3.42775 7.329 2.92407 7.95032 2.92407C8.57164 2.92407 9.07532 3.42775 9.07532 4.04907Z" fill="white"/>
    <path d="M11.3253 1.79907C11.3253 2.42039 10.8216 2.92407 10.2003 2.92407C9.579 2.92407 9.07532 2.42039 9.07532 1.79907C9.07532 1.17775 9.579 0.674072 10.2003 0.674072C10.8216 0.674072 11.3253 1.17775 11.3253 1.79907Z" fill="white"/>
</svg>
