<svg width="16" height="16" viewBox="0 0 16 16" fill="none" xmlns="http://www.w3.org/2000/svg">
<path d="M0 8C0 12.4183 3.58172 16 8 16C12.4183 16 16 12.4183 16 8C16 3.58173 12.4183 0 8 0C3.58172 0 0 3.58173 0 8ZM10.7071 6.70711L9.41421 8L10.7071 9.29289C11.0976 9.68342 11.0976 10.3166 10.7071 10.7071C10.3166 11.0976 9.68342 11.0976 9.29289 10.7071L8 9.41421L6.70711 10.7071C6.31658 11.0976 5.68342 11.0976 5.29289 10.7071C4.90237 10.3166 4.90237 9.68342 5.29289 9.29289L6.58579 8L5.29289 6.70711C4.90237 6.31658 4.90237 5.68342 5.29289 5.29289C5.68342 4.90237 6.31658 4.90237 6.70711 5.29289L8 6.58579L9.29289 5.29289C9.68342 4.90237 10.3166 4.90237 10.7071 5.29289C11.0976 5.68342 11.0976 6.31658 10.7071 6.70711Z" fill="#B0B3BA"/>
</svg>
