<svg width="12" height="13" viewBox="0 0 12 13" fill="none" xmlns="http://www.w3.org/2000/svg">
<path d="M3.75 0.209991C3.33579 0.209991 3 0.545778 3 0.959991V1.70999H10.5V9.20999H11.25C11.6642 9.20999 12 8.87421 12 8.45999V0.959991C12 0.545778 11.6642 0.209991 11.25 0.209991H3.75Z" fill="#6EB9FD"/>
<path d="M0 3.95999C0 3.54578 0.335786 3.20999 0.75 3.20999H8.25C8.66421 3.20999 9 3.54578 9 3.95999V11.46C9 11.8742 8.66421 12.21 8.25 12.21H0.75C0.335786 12.21 0 11.8742 0 11.46V3.95999ZM1.5 10.71H7.5V4.70999H1.5V10.71Z" fill="#6EB9FD"/>
</svg>
