<svg width="40" height="40" viewBox="0 0 40 40" fill="none" xmlns="http://www.w3.org/2000/svg">
<path d="M30 10C30 4.47715 25.5228 0 20 0C14.4772 0 10 4.47715 10 10C10 15.5228 14.4772 20 20 20C25.5228 20 30 15.5228 30 10ZM25 10C25 12.7614 22.7614 15 20 15C17.2386 15 15 12.7614 15 10C15 7.23858 17.2386 5 20 5C22.7614 5 25 7.23858 25 10Z" fill="#378535"/>
<path d="M2.5 30.5902C2.5 30.2021 2.59098 29.8179 2.84302 29.5228C3.91036 28.2729 7.864 25 20 25C32.136 25 36.0896 28.2729 37.157 29.5228C37.409 29.8179 37.5 30.2021 37.5 30.5902V37.5C37.5 38.8807 36.3807 40 35 40H5C3.61929 40 2.5 38.8807 2.5 37.5V30.5902ZM20 30C12.4729 30 8.94804 31.3462 7.5 32.167V35H32.5V32.167C31.052 31.3462 27.5271 30 20 30Z" fill="#378535"/>
</svg>
