<svg width="276" height="49" viewBox="0 0 276 49" fill="none" xmlns="http://www.w3.org/2000/svg">
<path fill-rule="evenodd" clip-rule="evenodd" d="M34.2682 16.3063V7.82845C34.2682 6.09218 33.3222 4.46013 31.8001 3.56967C29.5213 2.23609 24.5853 0 17.1341 0C9.6829 0 4.74686 2.23609 2.46802 3.56967C0.945944 4.46013 0 6.09218 0 7.82845V20.5601L27.129 28.3588V34.0306C27.129 34.7984 26.6435 35.3365 25.8182 35.7364L17.1341 40.0568L8.40498 35.7144C7.62467 35.3365 7.1392 34.7984 7.1392 34.0306V29.7768L0 27.6499V34.0306C0 37.5336 2.02325 40.5141 5.23589 42.0668L17.1341 48.21L28.988 42.0887C32.2449 40.5141 34.2682 37.5336 34.2682 34.0306V23.396L7.1392 15.5974V9.12374C9.0775 8.19499 12.3822 7.08971 17.1341 7.08971C21.8859 7.08971 25.1907 8.19499 27.129 9.12374V14.1794L34.2682 16.3063Z" fill="#008EFF"/>
<path fill-rule="evenodd" clip-rule="evenodd" d="M69.7591 36.1574C65.4693 36.1574 61.7926 34.7717 58.4908 32.7091L60.5335 29.6322C63.8353 31.7288 66.865 32.7431 70.2695 32.7431C74.2532 32.7431 76.1254 31.2212 76.1254 29.4299C76.1254 24.2914 59.2734 27.3674 59.2734 19.186C59.2734 15.197 63.291 12.053 69.7591 12.053C74.1167 12.053 77.8951 13.676 80.1082 15.8728L77.589 18.443C75.6828 16.786 72.7549 15.4673 69.6913 15.4673C65.9119 15.4673 63.3588 16.82 63.3588 18.7465C63.3588 23.5135 80.2447 20.9782 80.2447 29.0244C80.2447 33.2838 75.9211 36.1574 69.7591 36.1574Z" fill="#F8F8F8"/>
<path fill-rule="evenodd" clip-rule="evenodd" d="M96.7568 26.3194V35.3458H92.6714V26.2854L82.4588 12.8304H87.2242L94.8845 23.2426L102.136 12.8304H106.834L96.7568 26.3194Z" fill="#F8F8F8"/>
<path fill-rule="evenodd" clip-rule="evenodd" d="M135.329 35.3459V17.6986L134.206 20.0987L126.171 35.3459H123.72L115.788 20.0987L114.665 17.6986V35.3459H110.75V12.8305H116.434L124.061 27.9756L125.116 30.2745L126.171 27.9756L133.695 12.8305H139.312V35.3459H135.329Z" fill="#F8F8F8"/>
<path fill-rule="evenodd" clip-rule="evenodd" d="M161.533 19.5244C161.533 17.665 160.273 16.2792 157.175 16.2792H149.651V23.5474H157.346C160.443 23.5474 161.533 22.0596 161.533 20.2343V19.5244ZM156.732 26.8607H149.651V35.3464H145.566V12.8309H156.732C162.928 12.8309 165.652 15.6025 165.652 19.5244V20.1332C165.652 24.0542 162.928 26.8607 156.732 26.8607Z" fill="#F8F8F8"/>
<path fill-rule="evenodd" clip-rule="evenodd" d="M187.91 35.3459V25.6436H174.259V35.3459H170.174V12.8305H174.259V22.3645H187.91V12.8305H191.996V35.3459H187.91Z" fill="#F8F8F8"/>
<path fill-rule="evenodd" clip-rule="evenodd" d="M216.665 22.7019C216.665 18.8481 213.975 15.5349 209.005 15.5349C204.035 15.5349 201.379 18.8481 201.379 22.7019V25.4404C201.379 29.2943 204.035 32.6755 209.005 32.6755C213.975 32.6755 216.665 29.2943 216.665 25.4404V22.7019ZM209.004 36.157C201.719 36.157 197.258 31.0185 197.258 25.5085V22.702C197.258 17.0899 201.719 12.0526 209.004 12.0526C216.323 12.0526 220.783 17.0899 220.783 22.702V25.5085C220.783 31.0185 216.323 36.157 209.004 36.157Z" fill="#F8F8F8"/>
<path fill-rule="evenodd" clip-rule="evenodd" d="M244.371 35.3459L231.673 21.1129L230.038 19.0173V35.3459H225.987V12.8305H229.766L242.056 27.0975L243.724 29.1931V12.8305H247.741V35.3459H244.371Z" fill="#F8F8F8"/>
<path fill-rule="evenodd" clip-rule="evenodd" d="M265.923 26.3194V35.3458H261.838V26.2854L251.625 12.8304H256.391L264.051 23.2426L271.302 12.8304H276L265.923 26.3194Z" fill="#F8F8F8"/>
</svg>
