<svg width="40" height="40" viewBox="0 0 40 40" fill="none" xmlns="http://www.w3.org/2000/svg">
    <path d="M0 20C0 12.1746 0 8.26188 1.80534 5.41094C2.72586 3.95728 3.95728 2.72586 5.41094 1.80534C8.26188 0 12.1746 0 20 0C27.8254 0 31.7381 0 34.5891 1.80534C36.0427 2.72586 37.2741 3.95728 38.1947 5.41094C40 8.26188 40 12.1746 40 20C40 27.8254 40 31.7381 38.1947 34.5891C37.2741 36.0427 36.0427 37.2741 34.5891 38.1947C31.7381 40 27.8254 40 20 40C12.1746 40 8.26188 40 5.41094 38.1947C3.95728 37.2741 2.72586 36.0427 1.80534 34.5891C0 31.7381 0 27.8254 0 20Z" fill="#000028"/>
    <path d="M0 20C0 12.1746 0 8.26188 1.80534 5.41094C2.72586 3.95728 3.95728 2.72586 5.41094 1.80534C8.26188 0 12.1746 0 20 0C27.8254 0 31.7381 0 34.5891 1.80534C36.0427 2.72586 37.2741 3.95728 38.1947 5.41094C40 8.26188 40 12.1746 40 20C40 27.8254 40 31.7381 38.1947 34.5891C37.2741 36.0427 36.0427 37.2741 34.5891 38.1947C31.7381 40 27.8254 40 20 40C12.1746 40 8.26188 40 5.41094 38.1947C3.95728 37.2741 2.72586 36.0427 1.80534 34.5891C0 31.7381 0 27.8254 0 20Z" fill="url(#paint0_linear)"/>
    <g opacity="0.8">
        <path d="M29.028 15.7647V11.1598C29.028 10.2164 28.5297 9.33088 27.7219 8.84574C26.5177 8.12189 23.9094 6.90906 19.9685 6.90906C16.0276 6.90906 13.4193 8.12189 12.2151 8.84959C11.4073 9.33088 10.9091 10.2164 10.9091 11.1598V18.0748L25.2532 22.3101V25.3903C25.2532 25.8062 24.9965 26.0988 24.5586 26.3183L19.9685 28.6631L15.352 26.3067C14.9405 26.0988 14.6838 25.8062 14.6838 25.3903V23.0802L10.9091 21.9251V25.3903C10.9091 27.2924 11.9773 28.9095 13.676 29.7527L19.9685 33.0909L26.2346 29.7681C27.9597 28.9095 29.028 27.2924 29.028 25.3903V19.6149L14.6838 15.3796V11.8644C15.7106 11.36 17.4545 10.7593 19.9685 10.7593C22.4825 10.7593 24.2265 11.36 25.2532 11.8644V14.6096L29.028 15.7647Z" fill="#0098FF"/>
        <path d="M29.028 15.7647V11.1598C29.028 10.2164 28.5297 9.33088 27.7219 8.84574C26.5177 8.12189 23.9094 6.90906 19.9685 6.90906C16.0276 6.90906 13.4193 8.12189 12.2151 8.84959C11.4073 9.33088 10.9091 10.2164 10.9091 11.1598V18.0748L25.2532 22.3101V25.3903C25.2532 25.8062 24.9965 26.0988 24.5586 26.3183L19.9685 28.6631L15.352 26.3067C14.9405 26.0988 14.6838 25.8062 14.6838 25.3903V23.0802L10.9091 21.9251V25.3903C10.9091 27.2924 11.9773 28.9095 13.676 29.7527L19.9685 33.0909L26.2346 29.7681C27.9597 28.9095 29.028 27.2924 29.028 25.3903V19.6149L14.6838 15.3796V11.8644C15.7106 11.36 17.4545 10.7593 19.9685 10.7593C22.4825 10.7593 24.2265 11.36 25.2532 11.8644V14.6096L29.028 15.7647Z" fill="url(#paint1_radial)"/>
    </g>
    <defs>
        <linearGradient id="paint0_linear" x1="20" y1="0" x2="20" y2="40" gradientUnits="userSpaceOnUse">
            <stop stop-color="white" stop-opacity="0.2"/>
            <stop offset="1" stop-color="white" stop-opacity="0"/>
        </linearGradient>
        <radialGradient id="paint1_radial" cx="0" cy="0" r="1" gradientUnits="userSpaceOnUse" gradientTransform="translate(20 6.90906) rotate(90) scale(17.7273 22.8164)">
            <stop stop-color="white" stop-opacity="0.4"/>
            <stop offset="1" stop-color="white" stop-opacity="0"/>
        </radialGradient>
    </defs>
</svg>
