<svg width="16" height="16" viewBox="0 0 16 16" fill="none" xmlns="http://www.w3.org/2000/svg">
<path fill-rule="evenodd" clip-rule="evenodd" d="M15.952 1.30603C16.0685 0.943628 15.9692 0.546516 15.6957 0.281687C15.4223 0.016859 15.0222 -0.0697491 14.6637 0.0582825L0.663674 5.05825C0.286419 5.19299 0.0259746 5.53985 0.00182759 5.93972C-0.0223194 6.33958 0.194491 6.71527 0.552792 6.89442L6.28634 9.76122L9.63623 15.5039C9.83512 15.8448 10.2159 16.0369 10.6083 15.9941C11.0007 15.9514 11.3313 15.6818 11.452 15.306L15.952 1.30603ZM6.80256 7.78326L3.54321 6.15358L13.4278 2.62338L10.2341 12.5595L8.25222 9.16203L9.70712 7.70713C10.0976 7.31661 10.0976 6.68344 9.70712 6.29292C9.31659 5.90239 8.68343 5.90239 8.2929 6.29292L6.80256 7.78326Z" fill="#525760"/>
<path fill-rule="evenodd" clip-rule="evenodd" d="M15.952 1.30603C16.0685 0.943628 15.9692 0.546516 15.6957 0.281687C15.4223 0.016859 15.0222 -0.0697491 14.6637 0.0582825L0.663674 5.05825C0.286419 5.19299 0.0259746 5.53985 0.00182759 5.93972C-0.0223194 6.33958 0.194491 6.71527 0.552792 6.89442L6.28634 9.76122L9.63623 15.5039C9.83512 15.8448 10.2159 16.0369 10.6083 15.9941C11.0007 15.9514 11.3313 15.6818 11.452 15.306L15.952 1.30603ZM6.80256 7.78326L3.54321 6.15358L13.4278 2.62338L10.2341 12.5595L8.25222 9.16203L9.70712 7.70713C10.0976 7.31661 10.0976 6.68344 9.70712 6.29292C9.31659 5.90239 8.68343 5.90239 8.2929 6.29292L6.80256 7.78326Z" fill="white" fill-opacity="0.72"/>
</svg>
