<svg width="40" height="40" viewBox="0 0 40 40" fill="none" xmlns="http://www.w3.org/2000/svg">
<path d="M28.6989 0H11.3011C5.05968 0 0 5.05968 0 11.3011V28.6989C0 34.9403 5.05968 40 11.3011 40H28.6989C34.9403 40 40 34.9403 40 28.6989V11.3011C40 5.05968 34.9403 0 28.6989 0Z" fill="#000028"/>
<path d="M26.1608 30.625L32.3863 20L26.1608 9.375L15.3126 9.375V11.875L24.7281 11.875L29.4888 20L24.7281 28.125L15.3126 28.125L15.3126 30.625H26.1608Z" fill="#008EFF"/>
<path d="M18.4375 18.75L7.5 18.75L7.50001 21.25L18.4375 21.25L18.4375 18.75Z" fill="#008EFF"/>
<path d="M10.625 14.0625H21.5625V16.5625H10.625V14.0625Z" fill="#008EFF"/>
<path d="M21.5625 23.4375H10.625V25.9375H21.5625V23.4375Z" fill="#008EFF"/>
</svg>
