<svg width="16" height="16" viewBox="0 0 16 16" fill="none" xmlns="http://www.w3.org/2000/svg">
<path d="M0.292891 6.70706C-0.0976315 6.31654 -0.0976276 5.68337 0.292897 5.29285L5.2929 0.29289C5.68342 -0.0976323 6.31659 -0.0976299 6.70711 0.292896C7.09763 0.683422 7.09763 1.31659 6.7071 1.70711L3.41418 5.00001H10.5C13.5376 5.00001 16 7.46245 16 10.5C16 13.5376 13.5376 16 10.5 16H9C8.44772 16 8 15.5523 8 15C8 14.4477 8.44772 14 9 14H10.5C12.433 14 14 12.433 14 10.5C14 8.56701 12.433 7.00001 10.5 7.00001H3.41425L6.70711 10.2929C7.09763 10.6834 7.09763 11.3166 6.7071 11.7071C6.31658 12.0976 5.68341 12.0976 5.29289 11.7071L0.292891 6.70706Z" fill="#525760"/>
<path d="M0.292891 6.70706C-0.0976315 6.31654 -0.0976276 5.68337 0.292897 5.29285L5.2929 0.29289C5.68342 -0.0976323 6.31659 -0.0976299 6.70711 0.292896C7.09763 0.683422 7.09763 1.31659 6.7071 1.70711L3.41418 5.00001H10.5C13.5376 5.00001 16 7.46245 16 10.5C16 13.5376 13.5376 16 10.5 16H9C8.44772 16 8 15.5523 8 15C8 14.4477 8.44772 14 9 14H10.5C12.433 14 14 12.433 14 10.5C14 8.56701 12.433 7.00001 10.5 7.00001H3.41425L6.70711 10.2929C7.09763 10.6834 7.09763 11.3166 6.7071 11.7071C6.31658 12.0976 5.68341 12.0976 5.29289 11.7071L0.292891 6.70706Z" fill="white" fill-opacity="0.24"/>
</svg>
