<svg width="16" height="16" viewBox="0 0 16 16" fill="none" xmlns="http://www.w3.org/2000/svg">
<path d="M15.7071 6.70706C16.0976 6.31654 16.0976 5.68337 15.7071 5.29285L10.7071 0.29289C10.3166 -0.0976323 9.68341 -0.0976299 9.29289 0.292896C8.90237 0.683422 8.90237 1.31659 9.2929 1.70711L12.5858 5.00001H5.5C2.46243 5.00001 0 7.46245 0 10.5C0 13.5376 2.46243 16 5.5 16H7C7.55228 16 8 15.5523 8 15C8 14.4477 7.55228 14 7 14H5.5C3.567 14 2 12.433 2 10.5C2 8.56701 3.567 7.00001 5.5 7.00001H12.5858L9.29289 10.2929C8.90237 10.6834 8.90237 11.3166 9.2929 11.7071C9.68342 12.0976 10.3166 12.0976 10.7071 11.7071L15.7071 6.70706Z" fill="#525760"/>
<path d="M15.7071 6.70706C16.0976 6.31654 16.0976 5.68337 15.7071 5.29285L10.7071 0.29289C10.3166 -0.0976323 9.68341 -0.0976299 9.29289 0.292896C8.90237 0.683422 8.90237 1.31659 9.2929 1.70711L12.5858 5.00001H5.5C2.46243 5.00001 0 7.46245 0 10.5C0 13.5376 2.46243 16 5.5 16H7C7.55228 16 8 15.5523 8 15C8 14.4477 7.55228 14 7 14H5.5C3.567 14 2 12.433 2 10.5C2 8.56701 3.567 7.00001 5.5 7.00001H12.5858L9.29289 10.2929C8.90237 10.6834 8.90237 11.3166 9.2929 11.7071C9.68342 12.0976 10.3166 12.0976 10.7071 11.7071L15.7071 6.70706Z" fill="white" fill-opacity="0.72"/>
</svg>
