<svg width="10" height="11" viewBox="0 0 10 11" fill="none" xmlns="http://www.w3.org/2000/svg">
    <path d="M1.47461 10.5C1.2793 10.5 1.09212 10.4609 0.913086 10.3828C0.734049 10.3014 0.576172 10.194 0.439453 10.0605C0.30599 9.92383 0.198568 9.76595 0.117188 9.58691C0.0390625 9.40788 0 9.2207 0 9.02539V1.97461C0 1.7793 0.0390625 1.59212 0.117188 1.41309C0.198568 1.23405 0.30599 1.0778 0.439453 0.944336C0.576172 0.807617 0.734049 0.700195 0.913086 0.62207C1.09212 0.54069 1.2793 0.5 1.47461 0.5H8.52539C8.7207 0.5 8.90788 0.54069 9.08691 0.62207C9.26595 0.700195 9.4222 0.807617 9.55566 0.944336C9.69238 1.0778 9.7998 1.23405 9.87793 1.41309C9.95931 1.59212 10 1.7793 10 1.97461V9.02539C10 9.2207 9.95931 9.40788 9.87793 9.58691C9.7998 9.76595 9.69238 9.92383 9.55566 10.0605C9.4222 10.194 9.26595 10.3014 9.08691 10.3828C8.90788 10.4609 8.7207 10.5 8.52539 10.5H1.47461ZM8.50098 9.49902C8.56934 9.49902 8.63281 9.486 8.69141 9.45996C8.75326 9.43392 8.80697 9.39811 8.85254 9.35254C8.89811 9.30697 8.93392 9.25488 8.95996 9.19629C8.986 9.13444 8.99902 9.06934 8.99902 9.00098V1.99902C8.99902 1.93066 8.986 1.86719 8.95996 1.80859C8.93392 1.74674 8.89811 1.69303 8.85254 1.64746C8.80697 1.60189 8.75326 1.56608 8.69141 1.54004C8.63281 1.514 8.56934 1.50098 8.50098 1.50098H1.49902C1.43066 1.50098 1.36556 1.514 1.30371 1.54004C1.24512 1.56608 1.19303 1.60189 1.14746 1.64746C1.10189 1.69303 1.06608 1.74674 1.04004 1.80859C1.014 1.86719 1.00098 1.93066 1.00098 1.99902V9.00098C1.00098 9.06934 1.014 9.13444 1.04004 9.19629C1.06608 9.25488 1.10189 9.30697 1.14746 9.35254C1.19303 9.39811 1.24512 9.43392 1.30371 9.45996C1.36556 9.486 1.43066 9.49902 1.49902 9.49902H8.50098Z" fill="white"/>
</svg>
