<svg width="10" height="11" viewBox="0 0 10 11" fill="none" xmlns="http://www.w3.org/2000/svg">
<path fill-rule="evenodd" clip-rule="evenodd" d="M2 2V5.5H1.5C0.671573 5.5 0 6.17157 0 7V9C0 9.82843 0.671573 10.5 1.5 10.5H3.5C4.32843 10.5 5 9.82843 5 9V8.5H8.5C9.32843 8.5 10 7.82843 10 7V2C10 1.17157 9.32843 0.5 8.5 0.5H3.5C2.67157 0.5 2 1.17157 2 2ZM4 9V8.5H3.5C2.67157 8.5 2 7.82843 2 7V6.5H1.5C1.22386 6.5 1 6.72386 1 7V9C1 9.27614 1.22386 9.5 1.5 9.5H3.5C3.77614 9.5 4 9.27614 4 9ZM3.5 1.5H8.5C8.77614 1.5 9 1.72386 9 2V7C9 7.27614 8.77614 7.5 8.5 7.5H5H4H3.5C3.22386 7.5 3 7.27614 3 7V6.5V5.5V2C3 1.72386 3.22386 1.5 3.5 1.5Z" fill="white"/>
</svg>
