<svg width="16" height="12" viewBox="0 0 16 12" fill="none" xmlns="http://www.w3.org/2000/svg">
    <path d="M0.5 1.5C0.364583 1.5 0.247396 1.45052 0.148438 1.35156C0.0494792 1.2526 0 1.13542 0 1C0 0.864583 0.0494792 0.747396 0.148438 0.648438C0.247396 0.549479 0.364583 0.5 0.5 0.5H15.5C15.6354 0.5 15.7526 0.549479 15.8516 0.648438C15.9505 0.747396 16 0.864583 16 1C16 1.13542 15.9505 1.2526 15.8516 1.35156C15.7526 1.45052 15.6354 1.5 15.5 1.5H0.5ZM0.5 6.5C0.364583 6.5 0.247396 6.45052 0.148438 6.35156C0.0494792 6.2526 0 6.13542 0 6C0 5.86458 0.0494792 5.7474 0.148438 5.64844C0.247396 5.54948 0.364583 5.5 0.5 5.5H15.5C15.6354 5.5 15.7526 5.54948 15.8516 5.64844C15.9505 5.7474 16 5.86458 16 6C16 6.13542 15.9505 6.2526 15.8516 6.35156C15.7526 6.45052 15.6354 6.5 15.5 6.5H0.5ZM0.5 11.5C0.364583 11.5 0.247396 11.4505 0.148438 11.3516C0.0494792 11.2526 0 11.1354 0 11C0 10.8646 0.0494792 10.7474 0.148438 10.6484C0.247396 10.5495 0.364583 10.5 0.5 10.5H15.5C15.6354 10.5 15.7526 10.5495 15.8516 10.6484C15.9505 10.7474 16 10.8646 16 11C16 11.1354 15.9505 11.2526 15.8516 11.3516C15.7526 11.4505 15.6354 11.5 15.5 11.5H0.5Z" fill="white"/>
</svg>
