<svg width="10" height="11" viewBox="0 0 10 11" fill="none" xmlns="http://www.w3.org/2000/svg">
    <path d="M5 6.20801L0.854492 10.3535C0.756836 10.4512 0.639648 10.5 0.50293 10.5C0.359701 10.5 0.239258 10.4528 0.141602 10.3584C0.0472005 10.2607 0 10.1403 0 9.99707C0 9.86035 0.0488281 9.74316 0.146484 9.64551L4.29199 5.5L0.146484 1.35449C0.0488281 1.25684 0 1.13802 0 0.998047C0 0.929688 0.0130208 0.864583 0.0390625 0.802734C0.0651042 0.740885 0.100911 0.688802 0.146484 0.646484C0.192057 0.600911 0.245768 0.565104 0.307617 0.539062C0.369466 0.513021 0.43457 0.5 0.50293 0.5C0.639648 0.5 0.756836 0.548828 0.854492 0.646484L5 4.79199L9.14551 0.646484C9.24316 0.548828 9.36198 0.5 9.50195 0.5C9.57031 0.5 9.63379 0.513021 9.69238 0.539062C9.75423 0.565104 9.80794 0.600911 9.85352 0.646484C9.89909 0.692057 9.9349 0.745768 9.96094 0.807617C9.98698 0.866211 10 0.929688 10 0.998047C10 1.13802 9.95117 1.25684 9.85352 1.35449L5.70801 5.5L9.85352 9.64551C9.95117 9.74316 10 9.86035 10 9.99707C10 10.0654 9.98698 10.1305 9.96094 10.1924C9.9349 10.2542 9.89909 10.3079 9.85352 10.3535C9.8112 10.3991 9.75911 10.4349 9.69727 10.4609C9.63542 10.487 9.57031 10.5 9.50195 10.5C9.36198 10.5 9.24316 10.4512 9.14551 10.3535L5 6.20801Z" fill="white"/>
</svg>
