<svg width="10" height="11" viewBox="0 0 10 11" fill="none" xmlns="http://www.w3.org/2000/svg">
<path fill-rule="evenodd" clip-rule="evenodd" d="M2 2V5.5H1.5C0.671573 5.5 0 6.17157 0 7V9C0 9.82843 0.671573 10.5 1.5 10.5H3.5C4.32843 10.5 5 9.82843 5 9V8.5H8.5C9.32843 8.5 10 7.82843 10 7V2C10 1.17157 9.32843 0.5 8.5 0.5H3.5C2.67157 0.5 2 1.17157 2 2ZM8.5 1.5H3.5C3.22386 1.5 3 1.72386 3 2V5.5H3.5C4.32843 5.5 5 6.17157 5 7V7.5H8.5C8.77614 7.5 9 7.27614 9 7V2C9 1.72386 8.77614 1.5 8.5 1.5ZM4 8.5V9C4 9.27614 3.77614 9.5 3.5 9.5H1.5C1.22386 9.5 1 9.27614 1 9V7C1 6.72386 1.22386 6.5 1.5 6.5H2H3H3.5C3.77614 6.5 4 6.72386 4 7V7.5V8.5Z" fill="white"/>
</svg>
